<svg width="113" height="21" viewBox="0 0 113 21" fill="none" xmlns="http://www.w3.org/2000/svg"><path fill-rule="evenodd" clip-rule="evenodd" d="M41.304 11.05a4.013 4.013 0 00-.835-.615c-.333-.187-.703-.396-1.114-.625-.223-.128-.46-.258-.718-.388a7.808 7.808 0 01-.716-.408 2.46 2.46 0 01-.55-.486.975.975 0 01-.222-.638c0-.503.15-.866.452-1.089.302-.223.718-.334 1.247-.334.383 0 .756.106 1.117.313.36.21.667.443.915.701l.928-1.102c-.295-.329-.695-.642-1.205-.937C40.096 5.145 39.49 5 38.783 5c-1.03 0-1.837.258-2.418.775-.584.518-.874 1.22-.874 2.114 0 .43.068.796.199 1.1.133.301.316.572.552.81.235.236.52.455.85.658.328.201.694.415 1.088.646.309.188.6.352.873.497.272.142.502.283.695.419.191.137.34.295.452.464.11.174.165.38.165.625 0 .59-.163.981-.486 1.176-.324.195-.781.292-1.37.292-.383 0-.795-.094-1.235-.282-.442-.186-.862-.544-1.257-1.076L35 14.294c.425.546.92.97 1.48 1.264.56.294 1.228.442 2.009.442 1.015 0 1.853-.248 2.516-.744.663-.495.995-1.275.995-2.339 0-.43-.06-.793-.175-1.088a2.27 2.27 0 00-.521-.779zM51.28 12.688c0 .71-.199 1.239-.588 1.586-.392.349-.936.522-1.628.522-.693 0-1.258-.223-1.694-.666-.437-.442-.657-1.021-.657-1.731v-3.51c0-.682.22-1.244.657-1.69.436-.443.995-.665 1.671-.665.71 0 1.259.173 1.651.522.39.348.588.87.588 1.566v4.066zM49.52 5c-.617 0-1.186.144-1.706.432a3.22 3.22 0 00-1.23 1.212l-.159-1.423H45V21h1.74v-6.004a2.36 2.36 0 001.164 1.034c.49.202 1.013.3 1.57.3 1.16 0 2.037-.313 2.633-.944.595-.629.893-1.528.893-2.698v-4.11c0-1.2-.284-2.098-.848-2.691C51.586 5.295 50.711 5 49.52 5zM60.393 12.455c0 .302-.054.58-.16.831a2.03 2.03 0 01-.452.658 2.163 2.163 0 01-.666.444c-.25.109-.52.16-.803.16-.486 0-.892-.1-1.205-.3-.313-.201-.47-.546-.47-1.036V11.46l3.756-.8v1.794zM58.799 5c-.272 0-.57.039-.901.117-.328.08-.653.183-.976.303-.322.124-.63.26-.924.413-.295.149-.541.299-.741.444l.602 1.273c.171-.114.378-.235.624-.367.24-.13.495-.248.763-.356.26-.109.522-.192.77-.257.25-.068.47-.1.657-.1.656 0 1.108.13 1.362.39.25.258.375.727.375 1.404v1.125L55 10.534v2.721c0 .922.265 1.61.796 2.063.529.455 1.254.682 2.167.682.587 0 1.098-.155 1.532-.467a3.66 3.66 0 001.061-1.153l.108 1.425H62V8.264c0-1.125-.254-1.95-.763-2.476-.51-.526-1.32-.788-2.438-.788zM66.212 7.071c.362-.374.854-.56 1.476-.56.431 0 .834.112 1.212.334.376.221.7.515.965.873L71 6.641C70.17 5.548 69.067 5 67.688 5c-.548 0-1.047.087-1.499.26-.452.172-.84.415-1.165.733-.328.316-.579.688-.756 1.121-.179.43-.268.906-.268 1.422v3.97c0 1.108.336 1.967 1.011 2.577.673.613 1.582.917 2.723.917.591 0 1.166-.107 1.72-.324a3.753 3.753 0 001.455-1.015l-1.044-1.1c-.251.318-.565.55-.944.702a3.043 3.043 0 01-1.142.228c-.667 0-1.186-.17-1.556-.507-.372-.338-.556-.831-.556-1.478V8.537c0-.603.183-1.09.545-1.466zM74.745 8.537c0-.617.22-1.111.66-1.475.445-.367.99-.55 1.642-.55.636 0 1.105.149 1.405.45.303.303.502.74.592 1.318l.05.927-4.35.733V8.537zm3.986 5.736a3.883 3.883 0 01-1.311.217c-.79 0-1.435-.2-1.932-.593-.495-.396-.743-.96-.743-1.693v-1.06l6.092-1.011V8.536a3.68 3.68 0 00-.28-1.457 3.242 3.242 0 00-.779-1.12 3.473 3.473 0 00-1.197-.712A4.593 4.593 0 0077.047 5c-.59 0-1.13.084-1.63.247a3.88 3.88 0 00-1.28.7 3.19 3.19 0 00-.836 1.112A3.495 3.495 0 0073 8.536v3.668c0 1.252.387 2.197 1.161 2.837.778.64 1.84.959 3.187.959.715 0 1.369-.104 1.965-.312.597-.21 1.158-.565 1.687-1.07l-.976-1.141c-.45.386-.88.652-1.293.796zM90.67 13.827L88.838 5H87.16l-1.788 8.87L83.743 5H82l2.48 11h1.787l1.765-8.312L89.8 16h1.742L94 5h-1.722l-1.607 8.827zM96.747 8.537c0-.617.219-1.111.66-1.475.445-.367.99-.55 1.64-.55.636 0 1.104.149 1.406.45.302.303.501.74.592 1.318l.048.927-4.346.733V8.537zm3.987 5.736a3.9 3.9 0 01-1.313.217c-.791 0-1.436-.2-1.933-.593-.495-.396-.741-.96-.741-1.693v-1.06l6.091-1.011V8.536c0-.53-.094-1.018-.278-1.457a3.211 3.211 0 00-.782-1.12 3.46 3.46 0 00-1.196-.712A4.588 4.588 0 0099.048 5c-.59 0-1.132.084-1.627.247a3.795 3.795 0 00-1.28.7c-.357.303-.637.671-.838 1.112A3.485 3.485 0 0095 8.536v3.668c0 1.252.39 2.197 1.164 2.837.775.64 1.838.959 3.186.959.712 0 1.369-.104 1.966-.312.596-.21 1.159-.565 1.684-1.07l-.976-1.141c-.45.386-.879.652-1.29.796zM111.296 12.472c0 .658-.2 1.156-.604 1.49-.404.335-.939.505-1.613.505-.73 0-1.306-.229-1.722-.68-.419-.453-.628-1.036-.628-1.752v-3.2c0-.32.059-.63.168-.93a2.32 2.32 0 011.222-1.325c.282-.132.586-.197.916-.197.718 0 1.272.165 1.667.493.397.327.594.844.594 1.544v4.052zm.821-6.738c-.589-.606-1.467-.908-2.632-.908-.568 0-1.089.131-1.57.393a3.524 3.524 0 00-1.186 1.055V0H105v15.781h1.527l.09-1.274c.315.545.712.927 1.199 1.153.484.227 1.033.34 1.646.34 1.149 0 2.027-.302 2.633-.91.603-.607.905-1.477.905-2.616v-4.12c0-1.141-.292-2.012-.883-2.62z" fill="#fff"/><path fill-rule="evenodd" clip-rule="evenodd" d="M14.5 16a.5.5 0 100 1 .5.5 0 000-1z" fill="#36BDF7"/><mask id="a" style="mask-type:alpha" maskUnits="userSpaceOnUse" x="0" y="2" width="30" height="17"><path fill-rule="evenodd" clip-rule="evenodd" d="M0 2.488h29.773v16.26H0V2.488z" fill="#fff"/></mask><g mask="url(#a)"><path fill-rule="evenodd" clip-rule="evenodd" d="M17.884 13.686c-1.332 0-2.41-1.056-2.41-2.358 0-1.303 1.078-2.355 2.41-2.355s2.412 1.052 2.412 2.355c0 1.302-1.08 2.358-2.412 2.358zm-6.123 0c-1.334 0-2.414-1.056-2.414-2.358 0-1.303 1.08-2.355 2.414-2.355 1.332 0 2.41 1.052 2.41 2.355 0 1.302-1.078 2.358-2.41 2.358zm16.258-7.475c-.682-1.055-1.443-1.788-2.139-2.386a26.458 26.458 0 00-1.556-1.213c-.235-.17-.559-.17-.768.03l-.838.79c-.444.423-.967.917-1.609 1.512a592.34 592.34 0 01-1.74 1.605c-.216.2-.527.256-.82.204a4.61 4.61 0 00-.824-.073c-.938 0-1.807.277-2.531.75a.71.71 0 01-.772 0 4.602 4.602 0 00-3.205-.698c-.298.044-.62-.004-.84-.21a587.94 587.94 0 01-1.715-1.578c-.641-.595-1.161-1.089-1.608-1.512l-.839-.79c-.207-.2-.532-.2-.767-.03-.5.366-1.01.749-1.555 1.213-.7.598-1.458 1.331-2.139 2.386C1.073 7.264.47 8.637.191 9.997a9.269 9.269 0 00.028 3.876c.263 1.169.743 2.157 1.291 3.094.545.939 1.16 1.825 1.242 1.78.079-.048-.37-1.031-.728-1.995-.357-.964-.62-1.912-.741-2.833a7.427 7.427 0 01.144-2.831 11.445 11.445 0 011.254-3.056c.53-.88 1.117-1.487 1.658-1.98.403-.37.783-.675 1.155-.962.214-.167.522-.123.709.075l.056.06 2.178 2.31c.19.2.168.51-.015.717a4.592 4.592 0 00-.47.653.49.49 0 01-.655.186l-1.468-.84a.636.636 0 00-.774.097c-.22.232-.443.492-.673.846a6.956 6.956 0 00-.942 2.2 8.604 8.604 0 00-.143 2.98c.129.985.45 1.88.824 2.704.375.828.808 1.588.887 1.588.078 0-.2-.76-.425-1.538-.223-.777-.394-1.57-.449-2.335a7.751 7.751 0 01.145-2.134 6.078 6.078 0 01.834-2.047.486.486 0 01.691-.115l1.176.871c.257.192.413.484.49.789.012.052.026.103.04.152a.295.295 0 01-.338.368l-.41-.067c-.277-.044-.553.116-.625.38a5.374 5.374 0 00-.183.918c-.05.488-.01 1.023.082 1.548a7.53 7.53 0 00.525 1.705c.284.66.704 1.464.785 1.49.08.025-.18-.725-.339-1.361a7.652 7.652 0 01-.238-1.58 5.135 5.135 0 01.093-1.31c.054-.254.332-.39.585-.316l1.035.3c.312.091.595.247.865.426a4.594 4.594 0 002.545.762c.937 0 1.806-.277 2.53-.752a.707.707 0 01.772 0 4.598 4.598 0 002.53.752c.909 0 1.751-.26 2.463-.71.267-.17.55-.318.857-.406l1.278-.372c.258-.074.535.062.588.315.018.097.036.196.053.3.042.276.062.592.042 1.01a8.1 8.1 0 01-.24 1.58c-.159.637-.419 1.387-.339 1.361.08-.025.5-.83.783-1.49a7.322 7.322 0 00.525-1.704c.093-.525.132-1.06.085-1.548a5.745 5.745 0 00-.182-.917.554.554 0 00-.628-.38l-.573.097c-.225.036-.388-.189-.325-.405.083-.312.24-.609.504-.803l1.353-1.003a.485.485 0 01.69.115c.1.15.196.315.295.51.201.391.405.907.541 1.537.133.63.197 1.368.145 2.134-.053.765-.226 1.558-.45 2.335-.225.778-.502 1.538-.426 1.538.078 0 .51-.76.887-1.588.376-.825.696-1.719.827-2.704a8.633 8.633 0 00-.147-2.98 6.916 6.916 0 00-.94-2.2 5.688 5.688 0 00-.674-.846.637.637 0 00-.775-.098l-1.59.909c-.23.133-.52.031-.65-.198a4.389 4.389 0 00-.453-.647.53.53 0 01.017-.704l2.247-2.385.058-.06c.187-.198.493-.242.709-.075.37.287.75.592 1.154.962.54.493 1.128 1.1 1.658 1.98.53.88 1.006 2.032 1.252 3.056a7.416 7.416 0 01.146 2.831c-.122.92-.384 1.869-.741 2.833-.359.964-.809 1.947-.728 1.995.081.045.695-.841 1.243-1.78.547-.937 1.028-1.925 1.292-3.094a9.33 9.33 0 00.027-3.876c-.279-1.36-.881-2.733-1.563-3.786z" fill="#3DBDF6"/></g><path fill-rule="evenodd" clip-rule="evenodd" d="M12.499 11a.5.5 0 10.002 1 .5.5 0 00-.002-1zM18.5 11a.5.5 0 10.001 1.001.5.5 0 000-1.001z" fill="#36BDF7"/></svg>