<svg width="24" height="21" viewBox="0 0 24 21" fill="none" xmlns="http://www.w3.org/2000/svg"><path d="M9.497 16.686h-.21l-.177.116-4.36 2.893v-3.01H1a.3.3 0 0 1-.3-.3V4a.3.3 0 0 1 .3-.3h19a.3.3 0 0 1 .3.3v12.386a.3.3 0 0 1-.3.3H9.497Z" stroke="#fff" stroke-width="1.4"/><path d="M4.7 4.214H3.3V2A1.7 1.7 0 0 1 5 .3h17.052a1.7 1.7 0 0 1 1.7 1.7v10.41a1.7 1.7 0 0 1-1.7 1.7h-2.274v-1.4h2.274a.3.3 0 0 0 .3-.3V2a.3.3 0 0 0-.3-.3H5a.3.3 0 0 0-.3.3v2.214Z" fill="#fff"/><rect x="3" y="7" width="12" height="1" rx=".5" fill="#fff"/><rect x="3" y="10" width="10" height="1" rx=".5" fill="#fff"/><rect x="3" y="13" width="11" height="1" rx=".5" fill="#fff"/></svg>