<svg width="15" height="17" viewBox="0 0 15 17" fill="none" xmlns="http://www.w3.org/2000/svg"><path fill-rule="evenodd" clip-rule="evenodd" d="M13.876 13.453c-.166.383-.524.619-.897.593l-3.29-.042-.09.395c-.111.494-.494 1.356-1.8 1.586-.095.016-.198.016-.298.024-.1-.008-.205-.008-.3-.025-1.306-.23-1.688-1.091-1.8-1.585l-.09-.395-3.289.042c-.374.026-.732-.21-.898-.593a1.22 1.22 0 0 1 .374-1.432c.73-.603 1.596-1.553 1.8-3.55.24-2.317 1.086-3.966 2.452-4.853a3.21 3.21 0 0 1 3.5 0c1.365.886 2.213 2.536 2.452 4.854.205 1.996 1.07 2.946 1.8 3.55.507.417.553 1.019.374 1.43ZM7.5.99c.23 0 .416.18.416.401 0 .221-.186.4-.416.4a.41.41 0 0 1-.417-.4A.41.41 0 0 1 7.5.991Zm6.673 10.278c-.621-.512-1.279-1.258-1.447-2.895-.34-3.31-1.702-5.417-4.081-6.143.186-.233.3-.523.3-.839C8.945.624 8.297 0 7.5 0c-.798 0-1.446.624-1.446 1.392 0 .304.105.584.278.814-2.379.726-3.717 2.853-4.058 6.168-.168 1.636-.825 2.383-1.446 2.895a2.182 2.182 0 0 0-.654 2.565c.337.778 1.112 1.262 1.894 1.201l.876-.01c.47-.007 1.454-.026 1.454-.026s.492.746.755 1.017c.467.479 1.106.81 1.862.943.154.027.32.032.483.041h.004c.163-.009.329-.014.482-.04.758-.134 1.397-.465 1.863-.944.27-.276.84-1.063.84-1.063s.908.065 1.368.071l.877.012c.782.06 1.558-.424 1.894-1.202a2.184 2.184 0 0 0-.653-2.565Z" fill="#D0021B"/></svg>