<svg width="21" height="21" viewBox="0 0 21 21" fill="none" xmlns="http://www.w3.org/2000/svg"><path fill-rule="evenodd" clip-rule="evenodd" d="M7.087 8.826a3.478 3.478 0 1 1 6.956 0 3.478 3.478 0 0 1-6.956 0Zm1.391 0a2.087 2.087 0 1 0 4.174 0 2.087 2.087 0 0 0-4.174 0Z" fill="#fff"/><path fill-rule="evenodd" clip-rule="evenodd" d="M10.5 0C4.701 0 0 4.701 0 10.5S4.701 21 10.5 21 21 16.299 21 10.5 16.299 0 10.5 0ZM5.4 17.91c.094-.276.205-.547.33-.81a5.37 5.37 0 0 1 9.555.135c.105.225.195.465.285.705a9.09 9.09 0 0 1-5.07 1.56 9 9 0 0 1-5.1-1.59Zm11.224-1.346c.07.126.146.26.146.371l.075-.015a9 9 0 1 0-12.57 0c.06-.186.135-.367.225-.54a6.855 6.855 0 0 1 12.105.15l.019.034Z" fill="#fff"/></svg>