<svg width="21" height="20" viewBox="0 0 21 20" fill="none" xmlns="http://www.w3.org/2000/svg"><mask id="a" fill="#fff"><rect x="7" width="7" height="7" rx="1"/></mask><rect x="7" width="7" height="7" rx="1" stroke="#fff" stroke-width="2.6" mask="url(#a)"/><mask id="b" fill="#fff"><rect x="16" y="15" width="5" height="5" rx="1"/></mask><rect x="16" y="15" width="5" height="5" rx="1" stroke="#fff" stroke-width="2.6" mask="url(#b)"/><rect x="10" y="8" width="1" height="6" rx=".5" fill="#fff"/><rect x="2" y="11" width="1" height="3" rx=".5" fill="#fff"/><path d="M3.004 11.495v.5h-1v-.5c0-.826.669-1.495 1.494-1.495H17.5a1.5 1.5 0 0 1 1.5 1.5v.878h-1V11.5a.5.5 0 0 0-.5-.5H3.498a.495.495 0 0 0-.494.495Z" fill="#fff"/><rect x="18" y="11" width="1" height="3" rx=".5" fill="#fff"/><mask id="c" fill="#fff"><rect x="8" y="15" width="5" height="5" rx="1"/></mask><rect x="8" y="15" width="5" height="5" rx="1" stroke="#fff" stroke-width="2.6" mask="url(#c)"/><mask id="d" fill="#fff"><rect y="15" width="5" height="5" rx="1"/></mask><rect y="15" width="5" height="5" rx="1" stroke="#fff" stroke-width="2.6" mask="url(#d)"/></svg>